<?xml version="1.0" encoding="UTF-8"?>
<svg width="51px" height="48px" viewBox="0 0 51 48" version="1.1" xmlns="http://www.w3.org/2000/svg" xmlns:xlink="http://www.w3.org/1999/xlink">
    <title>Group 6</title>
    <g id="new" stroke="none" stroke-width="1" fill="none" fill-rule="evenodd">
        <g id="work-1" transform="translate(-887.000000, -1118.000000)" fill="#000000">
            <g id="Group-10" transform="translate(887.000000, 1118.000000)">
                <g id="Group-6">
                    <g id="ux-copy-3">
                        <path d="M9.19480136,5.26208422 C9.19480136,3.87785863 8.07108309,2.752079 6.68939209,2.752079 C5.30770109,2.752079 4.18359375,3.87785863 4.18359375,5.26208422 C4.18359375,6.64630972 5.30770109,7.77208935 6.68939209,7.77208935 C8.07069402,7.77208935 9.19480136,6.64630972 9.19480136,5.26208422 Z M5.67773437,5.26208422 C5.67773437,4.70348228 6.13181307,4.2489605 6.68939209,4.2489605 C7.24697111,4.2489605 7.70066073,4.70348228 7.70066073,5.26208422 C7.70066073,5.82068607 7.24697111,6.27520785 6.68939209,6.27520785 C6.13181307,6.27520785 5.67773437,5.82068607 5.67773437,5.26208422 Z" id="Shape" fill-rule="nonzero"></path>
                        <path d="M12.6418304,7.77208935 C14.0235214,7.77208935 15.1476287,6.64630972 15.1476287,5.26208422 C15.1476287,3.87785863 14.0235214,2.752079 12.6418304,2.752079 C11.2601395,2.752079 10.1364212,3.87785863 10.1364212,5.26208422 C10.1364212,6.64630972 11.2601395,7.77208935 12.6418304,7.77208935 Z M12.6418304,4.2489605 C13.1997986,4.2489605 13.6534881,4.70348228 13.6534881,5.26208422 C13.6534881,5.82068607 13.1994095,6.27520785 12.6418304,6.27520785 C12.0842514,6.27520785 11.6305619,5.82068607 11.6305619,5.26208422 C11.6305619,4.70348228 12.0842514,4.2489605 12.6418304,4.2489605 Z" id="Shape" fill-rule="nonzero"></path>
                        <path d="M18.5946579,7.77208935 C19.9759598,7.77208935 21.1000671,6.64630972 21.1000671,5.26208422 C21.1000671,3.87785863 19.9759598,2.752079 18.5946579,2.752079 C17.212967,2.752079 16.0888595,3.87785863 16.0888595,5.26208422 C16.0888595,6.64630972 17.212967,7.77208935 18.5946579,7.77208935 Z M18.5946579,4.2489605 C19.152237,4.2489605 19.6059265,4.70348228 19.6059265,5.26208422 C19.6059265,5.82068607 19.152237,6.27520785 18.5946579,6.27520785 C18.0366898,6.27520785 17.5830002,5.82068607 17.5830002,5.26208422 C17.5830002,4.70348228 18.0366898,4.2489605 18.5946579,4.2489605 Z" id="Shape" fill-rule="nonzero"></path>
                        <path d="M26.8614578,6.01052497 L45.0565109,6.01052497 C45.469345,6.01052497 45.8035812,5.67567568 45.8035812,5.26208422 C45.8035812,4.84849277 45.469345,4.51364348 45.0565109,4.51364348 L26.8614578,4.51364348 C26.4486237,4.51364348 26.1143875,4.84849277 26.1143875,5.26208422 C26.1143875,5.67567568 26.4486237,6.01052497 26.8614578,6.01052497 Z" id="Path"></path>
                        <path d="M47.8805924,0.0498960499 L3.11940763,0.0498960499 C1.39958951,0.0498960499 0,1.4516632 0,3.17502596 L0,44.8132796 C0,46.5362526 1.39958951,47.9384095 3.11940763,47.9384095 L47.8805924,47.9384095 C49.6004105,47.9384095 51,46.5362526 51,44.8132796 L51,3.17502596 C51,1.4516632 49.6004105,0.0498960499 47.8805924,0.0498960499 Z M47.8805924,46.441528 L3.11940763,46.441528 C2.22331233,46.441528 1.49414062,45.7110187 1.49414062,44.8132796 L1.49414062,10.4742724 L5.65866854,10.4742724 C6.07150269,10.4742724 6.40573886,10.1394231 6.40573886,9.72583165 C6.40573886,9.31262989 6.07150269,8.9773909 5.65866854,8.9773909 L1.49414062,8.9773909 L1.49414062,3.17502596 C1.49414062,2.27728685 2.22331233,1.54677755 3.11940763,1.54677755 L47.8805924,1.54677755 C48.7766877,1.54677755 49.5058594,2.27728685 49.5058594,3.17502596 L49.5058594,8.9773909 L8.44773104,8.9773909 C8.03528597,8.9773909 7.70066073,9.31262989 7.70066073,9.72583165 C7.70066073,10.1394231 8.03528597,10.4742724 8.44773104,10.4742724 L49.5058594,10.4742724 L49.5058594,44.8132796 C49.5058594,45.7110187 48.7766877,46.441528 47.8805924,46.441528 Z" id="Shape" fill-rule="nonzero"></path>
                    </g>
                    <g id="structure" transform="translate(9.000000, 13.000000)" stroke="#000000" stroke-linecap="round" stroke-linejoin="round">
                        <path d="M26.242662,8.25806452 L26.242662,1.5483871 L9.58603239,1.5483871 C9.35425101,0.660030258 8.54959514,0 7.58679151,0 C6.44357286,0 5.51391702,0.925907226 5.51391702,2.06451613 C5.51391702,3.02394155 6.17712551,3.82510077 7.06857289,4.05569555 L7.06857289,6.45564516 L0,11.8709677 L7.06857289,17.2862903 L7.06857289,19.6129032 L3.44104253,19.6129032 L3.44104253,24.7741935 L7.06857289,24.7741935 L7.06857289,27.9443045 C6.17712551,28.1748992 5.51391702,28.9760585 5.51391702,29.9354839 C5.51391702,31.0740928 6.44357286,32 7.58679151,32 C8.73001011,32 9.65966601,31.0740928 9.65966601,29.9354839 C9.65966601,28.9760585 8.99620444,28.1748992 8.10501014,27.9443045 L8.10501014,24.7741935 L11.7325405,24.7741935 L11.7325405,19.6129032 L8.10501014,19.6129032 L8.10501014,17.2862903 L14.499747,12.3870968 L19.5058199,12.3870968 L19.5058199,15.483871 L31.9430668,15.483871 L31.9430668,8.25806452 L26.242662,8.25806452 Z M8.62322876,29.9354839 C8.62322876,30.5047883 8.15840078,30.9677419 7.58679151,30.9677419 C7.01518219,30.9677419 6.55035427,30.5047883 6.55035427,29.9354839 C6.55035427,29.3661794 7.01518219,28.9032258 7.58679151,28.9032258 C8.15840078,28.9032258 8.62322876,29.3661794 8.62322876,29.9354839 Z M10.6961033,23.7419355 L4.47747977,23.7419355 L4.47747977,20.6451613 L10.6961033,20.6451613 L10.6961033,23.7419355 Z M6.55035427,2.06451613 C6.55035427,1.49521168 7.01518219,1.03225806 7.58679151,1.03225806 C8.15840078,1.03225806 8.62322876,1.49521168 8.62322876,2.06451613 C8.62322876,2.63382058 8.15840078,3.09677419 7.58679151,3.09677419 C7.01518219,3.09677419 6.55035427,2.63382058 6.55035427,2.06451613 Z M7.58679151,16.3807964 L1.69964573,11.8709677 L7.58679151,7.3611391 L13.4736842,11.8709677 L7.58679151,16.3807964 Z M14.499747,11.3548387 L8.10501014,6.45564516 L8.10501014,4.05569555 C8.82995951,3.86794355 9.39726717,3.30267135 9.58603239,2.58064516 L25.2062247,2.58064516 L25.2062247,8.25806452 L19.5058199,8.25806452 L19.5058199,11.3548387 L14.499747,11.3548387 Z M30.9066296,14.4516129 L20.5422571,14.4516129 L20.5422571,9.29032258 L30.9066296,9.29032258 L30.9066296,14.4516129 Z" id="Shape" stroke-width="0.3" fill-rule="nonzero"></path>
                        <polygon id="Path" stroke-width="0.1" points="21.5786943 10.3225806 29.8701923 10.3225806 29.8701923 11.3548387 21.5786943 11.3548387"></polygon>
                        <polygon id="Path" stroke-width="0.1" points="21.5786943 12.3870968 28.8337551 12.3870968 28.8337551 13.4193548 21.5786943 13.4193548"></polygon>
                        <path d="M13.805415,28.3870968 L30.3884109,28.3870968 L30.3884109,19.0967742 L13.805415,19.0967742 L13.805415,28.3870968 Z M14.8418522,20.1290323 L29.3519737,20.1290323 L29.3519737,27.3548387 L14.8418522,27.3548387 L14.8418522,20.1290323 Z" id="Shape" stroke-width="0.3" fill-rule="nonzero"></path>
                        <polygon id="Path" stroke-width="0.1" points="15.8782895 21.1612903 16.9147267 21.1612903 16.9147267 22.1935484 15.8782895 22.1935484"></polygon>
                        <polygon id="Path" stroke-width="0.1" points="17.951164 21.1612903 28.3155365 21.1612903 28.3155365 22.1935484 17.951164 22.1935484"></polygon>
                        <polygon id="Path" stroke-width="0.1" points="17.951164 23.2258065 28.3155365 23.2258065 28.3155365 24.2580645 17.951164 24.2580645"></polygon>
                        <polygon id="Path" stroke-width="0.1" points="15.8782895 23.2258065 16.9147267 23.2258065 16.9147267 24.2580645 15.8782895 24.2580645"></polygon>
                        <polygon id="Path" stroke-width="0.1" points="15.8782895 25.2903226 16.9147267 25.2903226 16.9147267 26.3225806 15.8782895 26.3225806"></polygon>
                        <polygon id="Path" stroke-width="0.1" points="17.951164 25.2903226 28.3155365 25.2903226 28.3155365 26.3225806 17.951164 26.3225806"></polygon>
                    </g>
                </g>
            </g>
        </g>
    </g>
</svg>