<?xml version="1.0" encoding="UTF-8"?>
<svg width="51px" height="48px" viewBox="0 0 51 48" version="1.1" xmlns="http://www.w3.org/2000/svg" xmlns:xlink="http://www.w3.org/1999/xlink">
    <title>Group 4</title>
    <g id="new" stroke="none" stroke-width="1" fill="none" fill-rule="evenodd">
        <g id="work-1" transform="translate(-110.000000, -1118.000000)">
            <g id="Group-8" transform="translate(110.000000, 1118.000000)">
                <g id="Group-4">
                    <g id="ux-copy" fill="#000000">
                        <path d="M9.19480136,5.26208422 C9.19480136,3.87785863 8.07108309,2.752079 6.68939209,2.752079 C5.30770109,2.752079 4.18359375,3.87785863 4.18359375,5.26208422 C4.18359375,6.64630972 5.30770109,7.77208935 6.68939209,7.77208935 C8.07069402,7.77208935 9.19480136,6.64630972 9.19480136,5.26208422 Z M5.67773437,5.26208422 C5.67773437,4.70348228 6.13181307,4.2489605 6.68939209,4.2489605 C7.24697111,4.2489605 7.70066073,4.70348228 7.70066073,5.26208422 C7.70066073,5.82068607 7.24697111,6.27520785 6.68939209,6.27520785 C6.13181307,6.27520785 5.67773437,5.82068607 5.67773437,5.26208422 Z" id="Shape" fill-rule="nonzero"></path>
                        <path d="M12.6418304,7.77208935 C14.0235214,7.77208935 15.1476287,6.64630972 15.1476287,5.26208422 C15.1476287,3.87785863 14.0235214,2.752079 12.6418304,2.752079 C11.2601395,2.752079 10.1364212,3.87785863 10.1364212,5.26208422 C10.1364212,6.64630972 11.2601395,7.77208935 12.6418304,7.77208935 Z M12.6418304,4.2489605 C13.1997986,4.2489605 13.6534881,4.70348228 13.6534881,5.26208422 C13.6534881,5.82068607 13.1994095,6.27520785 12.6418304,6.27520785 C12.0842514,6.27520785 11.6305619,5.82068607 11.6305619,5.26208422 C11.6305619,4.70348228 12.0842514,4.2489605 12.6418304,4.2489605 Z" id="Shape" fill-rule="nonzero"></path>
                        <path d="M18.5946579,7.77208935 C19.9759598,7.77208935 21.1000671,6.64630972 21.1000671,5.26208422 C21.1000671,3.87785863 19.9759598,2.752079 18.5946579,2.752079 C17.212967,2.752079 16.0888595,3.87785863 16.0888595,5.26208422 C16.0888595,6.64630972 17.212967,7.77208935 18.5946579,7.77208935 Z M18.5946579,4.2489605 C19.152237,4.2489605 19.6059265,4.70348228 19.6059265,5.26208422 C19.6059265,5.82068607 19.152237,6.27520785 18.5946579,6.27520785 C18.0366898,6.27520785 17.5830002,5.82068607 17.5830002,5.26208422 C17.5830002,4.70348228 18.0366898,4.2489605 18.5946579,4.2489605 Z" id="Shape" fill-rule="nonzero"></path>
                        <path d="M26.8614578,6.01052497 L45.0565109,6.01052497 C45.469345,6.01052497 45.8035812,5.67567568 45.8035812,5.26208422 C45.8035812,4.84849277 45.469345,4.51364348 45.0565109,4.51364348 L26.8614578,4.51364348 C26.4486237,4.51364348 26.1143875,4.84849277 26.1143875,5.26208422 C26.1143875,5.67567568 26.4486237,6.01052497 26.8614578,6.01052497 Z" id="Path"></path>
                        <path d="M47.8805924,0.0498960499 L3.11940763,0.0498960499 C1.39958951,0.0498960499 0,1.4516632 0,3.17502596 L0,44.8132796 C0,46.5362526 1.39958951,47.9384095 3.11940763,47.9384095 L47.8805924,47.9384095 C49.6004105,47.9384095 51,46.5362526 51,44.8132796 L51,3.17502596 C51,1.4516632 49.6004105,0.0498960499 47.8805924,0.0498960499 Z M47.8805924,46.441528 L3.11940763,46.441528 C2.22331233,46.441528 1.49414062,45.7110187 1.49414062,44.8132796 L1.49414062,10.4742724 L5.65866854,10.4742724 C6.07150269,10.4742724 6.40573886,10.1394231 6.40573886,9.72583165 C6.40573886,9.31262989 6.07150269,8.9773909 5.65866854,8.9773909 L1.49414062,8.9773909 L1.49414062,3.17502596 C1.49414062,2.27728685 2.22331233,1.54677755 3.11940763,1.54677755 L47.8805924,1.54677755 C48.7766877,1.54677755 49.5058594,2.27728685 49.5058594,3.17502596 L49.5058594,8.9773909 L8.44773104,8.9773909 C8.03528597,8.9773909 7.70066073,9.31262989 7.70066073,9.72583165 C7.70066073,10.1394231 8.03528597,10.4742724 8.44773104,10.4742724 L49.5058594,10.4742724 L49.5058594,44.8132796 C49.5058594,45.7110187 48.7766877,46.441528 47.8805924,46.441528 Z" id="Shape" fill-rule="nonzero"></path>
                    </g>
                    <g id="Group-3" transform="translate(5.000000, 13.000000)">
                        <polygon id="Triangle" stroke="#000000" stroke-width="1.5" stroke-linecap="round" stroke-linejoin="round" transform="translate(7.636364, 22.858586) scale(1, -1) translate(-7.636364, -22.858586) " points="7.63636364 20.510101 11.4545455 25.2070707 3.81818182 25.2070707"></polygon>
                        <rect id="Rectangle" stroke="#000000" stroke-width="1.5" x="0.75" y="20.3207071" width="13.7727273" height="10.772727" rx="3.762"></rect>
                        <path d="M17.15135,15.7661616 C17.1541377,18.0564481 19.0400325,19.9124081 21.3672591,19.9151515 L36.5445318,19.9151515 C38.8717585,19.9124081 40.7576533,18.0564481 40.7604409,15.7661616 L40.7604409,4.1489899 C40.7576533,1.85870337 38.8717585,0.00274340866 36.5445318,-9.05941988e-14 L21.3672591,-9.05941988e-14 C19.0400325,0.00274340866 17.1541377,1.85870337 17.15135,4.1489899 L17.15135,8.78424141 L14.2727273,11.6171717 L17.15135,14.450102 L17.15135,15.7661616 Z M16.6572455,11.6171717 L18.8377136,9.47131414 L18.8377136,4.1489899 C18.8377136,2.77413559 19.9702297,1.65959596 21.3672591,1.65959596 L36.5445318,1.65959596 C37.9415612,1.65959596 39.0740773,2.77413559 39.0740773,4.1489899 L39.0740773,15.7661616 C39.0740773,17.1410159 37.9415612,18.2555556 36.5445318,18.2555556 L21.3672591,18.2555556 C19.9702297,18.2555556 18.8377136,17.1410159 18.8377136,15.7661616 L18.8377136,13.7630293 L16.6572455,11.6171717 Z" id="Shape" fill="#000000" fill-rule="nonzero"></path>
                        <path d="M6.85681818,19.1323232 C10.1150124,19.128665 12.7553736,16.5302142 12.7590909,13.3237374 L12.7590909,7.51515152 L6.85681818,7.51515152 C3.59708297,7.51515152 0.954545455,10.115744 0.954545455,13.3237374 C0.954545455,16.5317308 3.59708297,19.1323232 6.85681818,19.1323232 Z M6.85681818,17.4727273 C5.15229741,17.4702442 3.61657656,16.4590806 2.96384773,14.9094813 C4.40180175,13.3763627 6.4231483,12.5012318 8.54318182,12.4939394 L11.0727273,12.4939394 L11.0727273,13.3237374 C11.0699396,15.6140239 9.18404482,17.4699839 6.85681818,17.4727273 Z M6.85681818,9.17474747 L11.0727273,9.17474747 L11.0727273,10.8343434 L8.54318182,10.8343434 C6.40808583,10.8405851 4.33993,11.5682412 2.68475455,12.8955616 C2.90272025,10.7871974 4.70339887,9.18127975 6.85681818,9.17474747 L6.85681818,9.17474747 Z" id="Shape" fill="#000000" fill-rule="nonzero"></path>
                        <path d="M26.0590909,14.4353535 L33.6477273,14.4353535 C35.9749539,14.4326101 37.8608487,12.5766502 37.8636364,10.2863636 L37.8636364,8.62676768 C37.8636364,7.25191337 36.7311203,6.13737374 35.3340909,6.13737374 L32.8045455,6.13737374 L32.8045455,5.30757576 C32.8045455,3.93272145 31.6720294,2.81818182 30.275,2.81818182 C28.8779706,2.81818182 27.7454545,3.93272145 27.7454545,5.30757576 L27.7454545,6.13737374 L26.0590909,6.13737374 L26.0590909,4.47777778 L21,4.47777778 L21,16.0949495 L26.0590909,16.0949495 L26.0590909,14.4353535 Z M29.4318182,7.7969697 L29.4318182,5.30757576 C29.4318182,4.84929099 29.8093235,4.47777778 30.275,4.47777778 C30.7406765,4.47777778 31.1181818,4.84929099 31.1181818,5.30757576 L31.1181818,7.7969697 L35.3340909,7.7969697 C35.7997674,7.7969697 36.1772727,8.16848291 36.1772727,8.62676768 L36.1772727,10.2863636 C36.1772727,11.6612179 35.0447567,12.7757576 33.6477273,12.7757576 L26.0590909,12.7757576 L26.0590909,7.7969697 L29.4318182,7.7969697 Z M22.6863636,14.4353535 L22.6863636,6.13737374 L24.3727273,6.13737374 L24.3727273,14.4353535 L22.6863636,14.4353535 Z" id="Shape" fill="#000000" fill-rule="nonzero"></path>
                    </g>
                </g>
            </g>
        </g>
    </g>
</svg>