<?xml version="1.0" encoding="UTF-8"?>
<svg width="40px" height="38px" viewBox="0 0 40 38" version="1.1" xmlns="http://www.w3.org/2000/svg" xmlns:xlink="http://www.w3.org/1999/xlink">
    <title>Group 6</title>
    <g id="Page-2" stroke="none" stroke-width="1" fill="none" fill-rule="evenodd">
        <g id="work-1" transform="translate(-849.000000, -1099.000000)" fill="#000000">
            <g id="Group-10" transform="translate(849.000000, 1099.000000)">
                <g id="Group-6" transform="translate(0.000000, 0.000000)">
                    <g id="ux-copy-3">
                        <path d="M7.21160891,4.12712488 C7.21160891,3.04145775 6.33026125,2.15849333 5.24658203,2.15849333 C4.16290281,2.15849333 3.28125,3.04145775 3.28125,4.12712488 C3.28125,5.21279194 4.16290281,6.09575635 5.24658203,6.09575635 C6.32995609,6.09575635 7.21160891,5.21279194 7.21160891,4.12712488 Z M4.453125,4.12712488 C4.453125,3.68900571 4.80926516,3.33251804 5.24658203,3.33251804 C5.68389891,3.33251804 6.03973391,3.68900571 6.03973391,4.12712488 C6.03973391,4.56524398 5.68389891,4.92173165 5.24658203,4.92173165 C4.80926516,4.92173165 4.453125,4.56524398 4.453125,4.12712488 Z" id="Shape" fill-rule="nonzero"></path>
                        <path d="M9.91516109,6.09575635 C10.9988403,6.09575635 11.8804931,5.21279194 11.8804931,4.12712488 C11.8804931,3.04145775 10.9988403,2.15849333 9.91516109,2.15849333 C8.83148195,2.15849333 7.9501343,3.04145775 7.9501343,4.12712488 C7.9501343,5.21279194 8.83148195,6.09575635 9.91516109,6.09575635 Z M9.91516109,3.33251804 C10.3527832,3.33251804 10.7086181,3.68900571 10.7086181,4.12712488 C10.7086181,4.56524398 10.352478,4.92173165 9.91516109,4.92173165 C9.47784422,4.92173165 9.1220093,4.56524398 9.1220093,4.12712488 C9.1220093,3.68900571 9.47784422,3.33251804 9.91516109,3.33251804 Z" id="Shape" fill-rule="nonzero"></path>
                        <path d="M14.5840454,6.09575635 C15.6674195,6.09575635 16.5490723,5.21279194 16.5490723,4.12712488 C16.5490723,3.04145775 15.6674195,2.15849333 14.5840454,2.15849333 C13.5003662,2.15849333 12.6187134,3.04145775 12.6187134,4.12712488 C12.6187134,5.21279194 13.5003662,6.09575635 14.5840454,6.09575635 Z M14.5840454,3.33251804 C15.0213623,3.33251804 15.3771973,3.68900571 15.3771973,4.12712488 C15.3771973,4.56524398 15.0213623,4.92173165 14.5840454,4.92173165 C14.1464234,4.92173165 13.7905884,4.56524398 13.7905884,4.12712488 C13.7905884,3.68900571 14.1464234,3.33251804 14.5840454,3.33251804 Z" id="Shape" fill-rule="nonzero"></path>
                        <path d="M21.0678101,4.71413723 L35.3384399,4.71413723 C35.6622314,4.71413723 35.9243774,4.45151033 35.9243774,4.12712488 C35.9243774,3.80273943 35.6622314,3.54011253 35.3384399,3.54011253 L21.0678101,3.54011253 C20.7440186,3.54011253 20.4818726,3.80273943 20.4818726,4.12712488 C20.4818726,4.45151033 20.7440186,4.71413723 21.0678101,4.71413723 Z" id="Path"></path>
                        <path d="M37.5534058,0.0391341568 L2.44659422,0.0391341568 C1.09771727,0.0391341568 0,1.13855937 0,2.49021644 L0,35.1476703 C0,36.4990216 1.09771727,37.5987526 2.44659422,37.5987526 L37.5534058,37.5987526 C38.9022827,37.5987526 40,36.4990216 40,35.1476703 L40,2.49021644 C40,1.13855937 38.9022827,0.0391341568 37.5534058,0.0391341568 Z M37.5534058,36.4247279 L2.44659422,36.4247279 C1.74377438,36.4247279 1.171875,35.8517794 1.171875,35.1476703 L1.171875,8.21511561 L4.43817141,8.21511561 C4.76196289,8.21511561 5.02410891,7.95248871 5.02410891,7.62810326 C5.02410891,7.30402344 4.76196289,7.0410909 4.43817141,7.0410909 L1.171875,7.0410909 L1.171875,2.49021644 C1.171875,1.78610734 1.74377438,1.21315886 2.44659422,1.21315886 L37.5534058,1.21315886 C38.2562256,1.21315886 38.828125,1.78610734 38.828125,2.49021644 L38.828125,7.0410909 L6.62567141,7.0410909 C6.30218508,7.0410909 6.03973391,7.30402344 6.03973391,7.62810326 C6.03973391,7.95248871 6.30218508,8.21511561 6.62567141,8.21511561 L38.828125,8.21511561 L38.828125,35.1476703 C38.828125,35.8517794 38.2562256,36.4247279 37.5534058,36.4247279 Z" id="Shape" fill-rule="nonzero"></path>
                    </g>
                    <g id="structure" transform="translate(7.058824, 10.196078)" stroke="#000000" stroke-linecap="round" stroke-linejoin="round">
                        <path d="M20.58248,6.47691335 L20.58248,1.21442125 L7.51845678,1.21442125 C7.33666746,0.517670791 6.70556482,0 5.95042472,0 C5.05378263,0 4.3246408,0.726201746 4.3246408,1.61922834 C4.3246408,2.37171886 4.84480432,3.00007904 5.54397874,3.18093769 L5.54397874,5.06325111 L0,9.31056293 L5.54397874,13.5578748 L5.54397874,15.3826692 L2.69885688,15.3826692 L2.69885688,19.43074 L5.54397874,19.43074 L5.54397874,21.9171015 C4.84480432,22.0979602 4.3246408,22.7263204 4.3246408,23.4788109 C4.3246408,24.3718375 5.05378263,25.0980392 5.95042472,25.0980392 C6.84706675,25.0980392 7.57620863,24.3718375 7.57620863,23.4788109 C7.57620863,22.7263204 7.05584662,22.0979602 6.3568707,21.9171015 L6.3568707,19.43074 L9.20199255,19.43074 L9.20199255,15.3826692 L6.3568707,15.3826692 L6.3568707,13.5578748 L11.3723506,9.71537002 L15.2986822,9.71537002 L15.2986822,12.1442125 L25.0533857,12.1442125 L25.0533857,6.47691335 L20.58248,6.47691335 Z M6.76331668,23.4788109 C6.76331668,23.9253242 6.39874571,24.288425 5.95042472,24.288425 C5.50210368,24.288425 5.13753276,23.9253242 5.13753276,23.4788109 C5.13753276,23.0322976 5.50210368,22.6691967 5.95042472,22.6691967 C6.39874571,22.6691967 6.76331668,23.0322976 6.76331668,23.4788109 Z M8.38910059,18.6211259 L3.51174884,18.6211259 L3.51174884,16.1922834 L8.38910059,16.1922834 L8.38910059,18.6211259 Z M5.13753276,1.61922834 C5.13753276,1.17271504 5.50210368,0.809614168 5.95042472,0.809614168 C6.39874571,0.809614168 6.76331668,1.17271504 6.76331668,1.61922834 C6.76331668,2.06574163 6.39874571,2.4288425 5.95042472,2.4288425 C5.50210368,2.4288425 5.13753276,2.06574163 5.13753276,1.61922834 Z M5.95042472,12.8476834 L1.33305548,9.31056293 L5.95042472,5.77344243 L10.5675955,9.31056293 L5.95042472,12.8476834 Z M11.3723506,8.90575585 L6.3568707,5.06325111 L6.3568707,3.18093769 C6.92545844,3.03368121 7.37040563,2.59033047 7.51845678,2.02403542 L19.769588,2.02403542 L19.769588,6.47691335 L15.2986822,6.47691335 L15.2986822,8.90575585 L11.3723506,8.90575585 Z M24.2404938,11.3345984 L16.1115742,11.3345984 L16.1115742,7.28652751 L24.2404938,7.28652751 L24.2404938,11.3345984 Z" id="Shape" stroke-width="0.3" fill-rule="nonzero"></path>
                        <polygon id="Path" stroke-width="0.1" points="16.9244662 8.09614168 23.4276018 8.09614168 23.4276018 8.90575585 16.9244662 8.90575585"></polygon>
                        <polygon id="Path" stroke-width="0.1" points="16.9244662 9.71537002 22.6147099 9.71537002 22.6147099 10.5249842 16.9244662 10.5249842"></polygon>
                        <path d="M10.8277765,22.2643896 L23.8340478,22.2643896 L23.8340478,14.9778621 L10.8277765,14.9778621 L10.8277765,22.2643896 Z M11.6406684,15.7874763 L23.0211558,15.7874763 L23.0211558,21.4547755 L11.6406684,21.4547755 L11.6406684,15.7874763 Z" id="Shape" stroke-width="0.3" fill-rule="nonzero"></path>
                        <polygon id="Path" stroke-width="0.1" points="12.4535604 16.5970904 13.2664523 16.5970904 13.2664523 17.4067046 12.4535604 17.4067046"></polygon>
                        <polygon id="Path" stroke-width="0.1" points="14.0793443 16.5970904 22.2082639 16.5970904 22.2082639 17.4067046 14.0793443 17.4067046"></polygon>
                        <polygon id="Path" stroke-width="0.1" points="14.0793443 18.2163188 22.2082639 18.2163188 22.2082639 19.025933 14.0793443 19.025933"></polygon>
                        <polygon id="Path" stroke-width="0.1" points="12.4535604 18.2163188 13.2664523 18.2163188 13.2664523 19.025933 12.4535604 19.025933"></polygon>
                        <polygon id="Path" stroke-width="0.1" points="12.4535604 19.8355471 13.2664523 19.8355471 13.2664523 20.6451613 12.4535604 20.6451613"></polygon>
                        <polygon id="Path" stroke-width="0.1" points="14.0793443 19.8355471 22.2082639 19.8355471 22.2082639 20.6451613 14.0793443 20.6451613"></polygon>
                    </g>
                </g>
            </g>
        </g>
    </g>
</svg>