<?xml version="1.0" encoding="UTF-8"?>
<svg width="40px" height="38px" viewBox="0 0 40 38" version="1.1" xmlns="http://www.w3.org/2000/svg" xmlns:xlink="http://www.w3.org/1999/xlink">
    <title>Group 5</title>
    <g id="Page-2" stroke="none" stroke-width="1" fill="none" fill-rule="evenodd">
        <g id="work-1" transform="translate(-609.000000, -1099.000000)" fill="#000000">
            <g id="Group-9" transform="translate(609.000000, 1099.000000)">
                <g id="Group-5">
                    <g id="ux-copy-2">
                        <path d="M7.21160891,4.12712488 C7.21160891,3.04145775 6.33026125,2.15849333 5.24658203,2.15849333 C4.16290281,2.15849333 3.28125,3.04145775 3.28125,4.12712488 C3.28125,5.21279194 4.16290281,6.09575635 5.24658203,6.09575635 C6.32995609,6.09575635 7.21160891,5.21279194 7.21160891,4.12712488 Z M4.453125,4.12712488 C4.453125,3.68900571 4.80926516,3.33251804 5.24658203,3.33251804 C5.68389891,3.33251804 6.03973391,3.68900571 6.03973391,4.12712488 C6.03973391,4.56524398 5.68389891,4.92173165 5.24658203,4.92173165 C4.80926516,4.92173165 4.453125,4.56524398 4.453125,4.12712488 Z" id="Shape" fill-rule="nonzero"></path>
                        <path d="M9.91516109,6.09575635 C10.9988403,6.09575635 11.8804931,5.21279194 11.8804931,4.12712488 C11.8804931,3.04145775 10.9988403,2.15849333 9.91516109,2.15849333 C8.83148195,2.15849333 7.9501343,3.04145775 7.9501343,4.12712488 C7.9501343,5.21279194 8.83148195,6.09575635 9.91516109,6.09575635 Z M9.91516109,3.33251804 C10.3527832,3.33251804 10.7086181,3.68900571 10.7086181,4.12712488 C10.7086181,4.56524398 10.352478,4.92173165 9.91516109,4.92173165 C9.47784422,4.92173165 9.1220093,4.56524398 9.1220093,4.12712488 C9.1220093,3.68900571 9.47784422,3.33251804 9.91516109,3.33251804 Z" id="Shape" fill-rule="nonzero"></path>
                        <path d="M14.5840454,6.09575635 C15.6674195,6.09575635 16.5490723,5.21279194 16.5490723,4.12712488 C16.5490723,3.04145775 15.6674195,2.15849333 14.5840454,2.15849333 C13.5003662,2.15849333 12.6187134,3.04145775 12.6187134,4.12712488 C12.6187134,5.21279194 13.5003662,6.09575635 14.5840454,6.09575635 Z M14.5840454,3.33251804 C15.0213623,3.33251804 15.3771973,3.68900571 15.3771973,4.12712488 C15.3771973,4.56524398 15.0213623,4.92173165 14.5840454,4.92173165 C14.1464234,4.92173165 13.7905884,4.56524398 13.7905884,4.12712488 C13.7905884,3.68900571 14.1464234,3.33251804 14.5840454,3.33251804 Z" id="Shape" fill-rule="nonzero"></path>
                        <path d="M21.0678101,4.71413723 L35.3384399,4.71413723 C35.6622314,4.71413723 35.9243774,4.45151033 35.9243774,4.12712488 C35.9243774,3.80273943 35.6622314,3.54011253 35.3384399,3.54011253 L21.0678101,3.54011253 C20.7440186,3.54011253 20.4818726,3.80273943 20.4818726,4.12712488 C20.4818726,4.45151033 20.7440186,4.71413723 21.0678101,4.71413723 Z" id="Path"></path>
                        <path d="M37.5534058,0.0391341568 L2.44659422,0.0391341568 C1.09771727,0.0391341568 0,1.13855937 0,2.49021644 L0,35.1476703 C0,36.4990216 1.09771727,37.5987526 2.44659422,37.5987526 L37.5534058,37.5987526 C38.9022827,37.5987526 40,36.4990216 40,35.1476703 L40,2.49021644 C40,1.13855937 38.9022827,0.0391341568 37.5534058,0.0391341568 Z M37.5534058,36.4247279 L2.44659422,36.4247279 C1.74377438,36.4247279 1.171875,35.8517794 1.171875,35.1476703 L1.171875,8.21511561 L4.43817141,8.21511561 C4.76196289,8.21511561 5.02410891,7.95248871 5.02410891,7.62810326 C5.02410891,7.30402344 4.76196289,7.0410909 4.43817141,7.0410909 L1.171875,7.0410909 L1.171875,2.49021644 C1.171875,1.78610734 1.74377438,1.21315886 2.44659422,1.21315886 L37.5534058,1.21315886 C38.2562256,1.21315886 38.828125,1.78610734 38.828125,2.49021644 L38.828125,7.0410909 L6.62567141,7.0410909 C6.30218508,7.0410909 6.03973391,7.30402344 6.03973391,7.62810326 C6.03973391,7.95248871 6.30218508,8.21511561 6.62567141,8.21511561 L38.828125,8.21511561 L38.828125,35.1476703 C38.828125,35.8517794 38.2562256,36.4247279 37.5534058,36.4247279 Z" id="Shape" fill-rule="nonzero"></path>
                    </g>
                    <g id="magic-wand" transform="translate(8.627451, 10.980392)" stroke="#000000" stroke-width="0.3">
                        <path d="M19.737196,8.8817842e-16 C18.9390508,-0.00219022063 18.1732027,0.31669604 17.6103666,0.885587205 L12.765743,5.75571813 L13.2927596,6.28555541 L14.8925607,4.67733145 L15.483513,5.27139514 L11.6477367,9.12736625 L12.1747529,9.65720307 L16.0105534,5.80121041 L16.97417,6.76990042 L9.41176471,14.3721235 L9.93878137,14.9019608 L17.5012104,7.29971569 L18.0921628,7.89377938 L13.1384072,12.8736182 L13.6654239,13.4034555 L21.8640253,5.16168722 C22.7242641,4.29693841 22.9816085,2.99641186 22.5160575,1.86654988 C22.0505064,0.736687907 20.9537439,8.8817842e-16 19.737196,8.8817842e-16 Z M15.4196011,4.14751618 L17.1285462,2.42957353 L20.3281483,5.64602146 L19.737196,6.24008514 L18.8827113,5.38110118 L18.3556951,5.91093799 L19.2101555,6.76990042 L18.6192032,7.36396411 L15.4196011,4.14751618 Z M21.337011,4.63185041 L20.8551887,5.11620618 L17.6555866,1.89975825 L18.1373847,1.41542402 C18.7088746,0.840554689 19.54208,0.615927472 20.323025,0.826188367 C21.10397,1.03644926 21.7139586,1.64964063 21.9231294,2.43469432 C22.1323002,3.219748 21.9088613,4.05734338 21.337011,4.63185041 L21.337011,4.63185041 Z" id="Shape" fill-rule="nonzero"></path>
                        <path d="M8.89400962,11.3471117 L3.29503871,17.2146836 L2.71445546,16.6062301 L8.31341812,10.7387168 L7.79566303,10.1960784 L1.93781459,16.3349225 C1.89762953,16.3770445 1.86734922,16.4283885 1.84936931,16.4848925 L0.018791672,22.2400588 C-0.0250513214,22.3779282 0.00918906346,22.5299236 0.107240197,22.6326879 C0.20529133,22.7354522 0.350326155,22.7713495 0.481888915,22.7254165 L5.97362184,20.8070277 C6.02753484,20.7881751 6.07652656,20.7564439 6.11672724,20.7143403 L7.94731449,18.7959385 L7.42955986,18.2533007 L5.85785931,19.9004173 L5.27727971,19.2919859 L6.84896791,17.6449053 L6.33121328,17.1022674 L4.75950083,18.7493946 L3.81281302,17.7572749 L9.41176471,11.88975 L8.89400962,11.3471117 Z M1.51536807,19.9615252 C2.00775745,20.2220314 2.40755623,20.6410011 2.65614652,21.1570056 L0.944985701,21.7547458 L1.51536807,19.9615252 Z M5.18007604,20.2753477 L3.35724998,20.9121017 C3.02736959,20.1693404 2.45783498,19.5724898 1.74907013,19.2267904 L2.35668462,17.316528 L3.03616254,18.0285941 L5.18007604,20.2753477 Z" id="Shape" fill-rule="nonzero"></path>
                        <polygon id="Path" transform="translate(17.399132, 4.588204) rotate(-45.000000) translate(-17.399132, -4.588204) " points="17.0208924 4.05330202 17.7773718 4.05330202 17.7773718 5.12310579 17.0208924 5.12310579"></polygon>
                        <path d="M0.379506641,7.57268562 L6.67393359,7.57268562 L9.97833302,10.8695125 C10.0868804,10.9777811 10.2501051,11.0101603 10.3919084,10.9515541 C10.5337116,10.8929479 10.6261734,10.7548955 10.626186,10.6017599 L10.626186,7.57268562 L11.3851992,7.57268562 C11.5947941,7.57268353 11.7647059,7.40316441 11.7647059,7.19405134 L11.7647059,0.378634281 C11.7647059,0.169521208 11.5947941,0 11.3851992,0 L0.379506641,0 C0.169911779,0 0,0.169521208 0,0.378634281 L0,7.19405134 C0,7.40316441 0.169911779,7.57268353 0.379506641,7.57268562 L0.379506641,7.57268562 Z M0.759013283,0.757268562 L11.0056926,0.757268562 L11.0056926,6.81541706 L10.2466793,6.81541706 C10.0370845,6.81541915 9.86717477,6.98493827 9.86717268,7.19405134 L9.86717268,9.68766667 L7.09946584,6.92629869 C7.02829192,6.85530038 6.93176616,6.8154156 6.83111954,6.81541706 L0.759013283,6.81541706 L0.759013283,0.757268562 Z" id="Shape" fill-rule="nonzero"></path>
                        <path d="M3.45029633,2.35294118 L2.45055662,3.62234694 C2.38805466,3.70170415 2.35294118,3.8093379 2.35294118,3.92156863 C2.35294118,4.03379935 2.38805466,4.1414331 2.45055662,4.22079031 L3.45029633,5.49019608 L3.92156863,4.89175271 L3.15746507,3.92156863 L3.92156863,2.95138454 L3.45029633,2.35294118 Z" id="Path"></path>
                        <polygon id="Path" transform="translate(5.860254, 3.832079) rotate(-63.434949) translate(-5.860254, -3.832079) " points="3.74651406 3.45396249 7.97399462 3.45396249 7.97399462 4.21019482 3.74651406 4.21019482"></polygon>
                        <path d="M8.31440955,5.49019608 L9.31414926,4.22079031 C9.37665122,4.1414331 9.41176471,4.03379935 9.41176471,3.92156863 C9.41176471,3.8093379 9.37665122,3.70170415 9.31414926,3.62234694 L8.31440955,2.35294118 L7.84313725,2.95138454 L8.60724081,3.92156863 L7.84313725,4.89175271 L8.31440955,5.49019608 Z" id="Path"></path>
                        <path d="M22.3725494,14.1176471 L11.5686398,14.1176471 C11.3628878,14.1176471 11.1960933,14.2932226 11.1960912,14.5098039 L11.1960912,15.6862745 L8.21570235,15.6862745 C8.06501599,15.6862741 7.9291675,15.7818242 7.87150467,15.9283686 C7.81384185,16.074913 7.84572081,16.2435912 7.95227602,16.3557466 L11.1960912,19.7702686 L11.1960912,22.3529412 C11.1960933,22.5695225 11.3628878,22.745098 11.5686398,22.745098 L22.3725494,22.745098 C22.5783015,22.745098 22.745098,22.5695225 22.745098,22.3529412 L22.745098,14.5098039 C22.745098,14.2932226 22.5783015,14.1176471 22.3725494,14.1176471 Z M22.0000008,21.9607843 L11.9411884,21.9607843 L11.9411884,19.6078431 C11.9411878,19.5038303 11.9019355,19.4040775 11.8320661,19.3305279 L9.11512782,16.4705882 L11.5686398,16.4705882 C11.7743919,16.4705861 11.9411864,16.2950127 11.9411884,16.0784314 L11.9411884,14.9019608 L22.0000008,14.9019608 L22.0000008,21.9607843 Z" id="Shape" fill-rule="nonzero"></path>
                        <path d="M14.4306885,20.3921569 L14.9019608,19.7937135 L14.1378572,18.8235294 L14.9019608,17.8533453 L14.4306885,17.254902 L13.4309488,18.5243077 C13.3684468,18.6036649 13.3333333,18.7112987 13.3333333,18.8235294 C13.3333333,18.9357601 13.3684468,19.0433939 13.4309488,19.1227511 L14.4306885,20.3921569 Z" id="Path"></path>
                        <polygon id="Path" transform="translate(16.821831, 18.585845) rotate(-63.434949) translate(-16.821831, -18.585845) " points="14.7080908 18.2077287 18.9355714 18.2077287 18.9355714 18.9639611 14.7080908 18.9639611"></polygon>
                        <path d="M19.2948017,20.3921569 L20.2945414,19.1227511 C20.3570434,19.0433939 20.3921569,18.9357601 20.3921569,18.8235294 C20.3921569,18.7112987 20.3570434,18.6036649 20.2945414,18.5243077 L19.2948017,17.254902 L18.8235294,17.8533453 L19.587633,18.8235294 L18.8235294,19.7937135 L19.2948017,20.3921569 Z" id="Path"></path>
                    </g>
                </g>
            </g>
        </g>
    </g>
</svg>