<?xml version="1.0" encoding="UTF-8"?>
<svg width="40px" height="38px" viewBox="0 0 40 38" version="1.1" xmlns="http://www.w3.org/2000/svg" xmlns:xlink="http://www.w3.org/1999/xlink">
    <title>ux</title>
    <g id="Page-2" stroke="none" stroke-width="1" fill="none" fill-rule="evenodd">
        <g id="work-1" transform="translate(-369.000000, -1099.000000)" fill="#000000">
            <g id="Group-7" transform="translate(369.000000, 1099.000000)">
                <g id="ux" transform="translate(0.000000, 0.000000)">
                    <path d="M7.21160891,4.12712488 C7.21160891,3.04145775 6.33026125,2.15849333 5.24658203,2.15849333 C4.16290281,2.15849333 3.28125,3.04145775 3.28125,4.12712488 C3.28125,5.21279194 4.16290281,6.09575635 5.24658203,6.09575635 C6.32995609,6.09575635 7.21160891,5.21279194 7.21160891,4.12712488 Z M4.453125,4.12712488 C4.453125,3.68900571 4.80926516,3.33251804 5.24658203,3.33251804 C5.68389891,3.33251804 6.03973391,3.68900571 6.03973391,4.12712488 C6.03973391,4.56524398 5.68389891,4.92173165 5.24658203,4.92173165 C4.80926516,4.92173165 4.453125,4.56524398 4.453125,4.12712488 Z" id="Shape" fill-rule="nonzero"></path>
                    <path d="M9.91516109,6.09575635 C10.9988403,6.09575635 11.8804931,5.21279194 11.8804931,4.12712488 C11.8804931,3.04145775 10.9988403,2.15849333 9.91516109,2.15849333 C8.83148195,2.15849333 7.9501343,3.04145775 7.9501343,4.12712488 C7.9501343,5.21279194 8.83148195,6.09575635 9.91516109,6.09575635 Z M9.91516109,3.33251804 C10.3527832,3.33251804 10.7086181,3.68900571 10.7086181,4.12712488 C10.7086181,4.56524398 10.352478,4.92173165 9.91516109,4.92173165 C9.47784422,4.92173165 9.1220093,4.56524398 9.1220093,4.12712488 C9.1220093,3.68900571 9.47784422,3.33251804 9.91516109,3.33251804 Z" id="Shape" fill-rule="nonzero"></path>
                    <path d="M14.5840454,6.09575635 C15.6674195,6.09575635 16.5490723,5.21279194 16.5490723,4.12712488 C16.5490723,3.04145775 15.6674195,2.15849333 14.5840454,2.15849333 C13.5003662,2.15849333 12.6187134,3.04145775 12.6187134,4.12712488 C12.6187134,5.21279194 13.5003662,6.09575635 14.5840454,6.09575635 Z M14.5840454,3.33251804 C15.0213623,3.33251804 15.3771973,3.68900571 15.3771973,4.12712488 C15.3771973,4.56524398 15.0213623,4.92173165 14.5840454,4.92173165 C14.1464234,4.92173165 13.7905884,4.56524398 13.7905884,4.12712488 C13.7905884,3.68900571 14.1464234,3.33251804 14.5840454,3.33251804 Z" id="Shape" fill-rule="nonzero"></path>
                    <path d="M21.0678101,4.71413723 L35.3384399,4.71413723 C35.6622314,4.71413723 35.9243774,4.45151033 35.9243774,4.12712488 C35.9243774,3.80273943 35.6622314,3.54011253 35.3384399,3.54011253 L21.0678101,3.54011253 C20.7440186,3.54011253 20.4818726,3.80273943 20.4818726,4.12712488 C20.4818726,4.45151033 20.7440186,4.71413723 21.0678101,4.71413723 Z" id="Path"></path>
                    <path d="M37.5534058,0.0391341568 L2.44659422,0.0391341568 C1.09771727,0.0391341568 0,1.13855937 0,2.49021644 L0,35.1476703 C0,36.4990216 1.09771727,37.5987526 2.44659422,37.5987526 L37.5534058,37.5987526 C38.9022827,37.5987526 40,36.4990216 40,35.1476703 L40,2.49021644 C40,1.13855937 38.9022827,0.0391341568 37.5534058,0.0391341568 Z M37.5534058,36.4247279 L2.44659422,36.4247279 C1.74377438,36.4247279 1.171875,35.8517794 1.171875,35.1476703 L1.171875,8.21511561 L4.43817141,8.21511561 C4.76196289,8.21511561 5.02410891,7.95248871 5.02410891,7.62810326 C5.02410891,7.30402344 4.76196289,7.0410909 4.43817141,7.0410909 L1.171875,7.0410909 L1.171875,2.49021644 C1.171875,1.78610734 1.74377438,1.21315886 2.44659422,1.21315886 L37.5534058,1.21315886 C38.2562256,1.21315886 38.828125,1.78610734 38.828125,2.49021644 L38.828125,7.0410909 L6.62567141,7.0410909 C6.30218508,7.0410909 6.03973391,7.30402344 6.03973391,7.62810326 C6.03973391,7.95248871 6.30218508,8.21511561 6.62567141,8.21511561 L38.828125,8.21511561 L38.828125,35.1476703 C38.828125,35.8517794 38.2562256,36.4247279 37.5534058,36.4247279 Z" id="Shape" fill-rule="nonzero"></path>
                    <path d="M32.6684549,10.1960784 L27.5849016,10.1960784 C26.5694028,10.1960784 25.7432496,11.0221681 25.7432496,12.0375889 L25.7432496,12.7412949 C25.146735,12.930626 24.675037,13.4025906 24.4862972,13.9993624 L15.4010361,14.0335935 C15.2116905,13.4386393 14.7405984,12.9681893 14.1452955,12.7791611 L14.1452955,12.0757581 C14.1452955,11.0603373 13.3191423,10.2342476 12.3036435,10.2342476 L7.22039321,10.2342476 C6.20489437,10.2342476 5.3787412,11.0603373 5.3787412,12.0757581 L5.3787412,17.1586176 C5.3787412,18.1740384 6.20489437,18.9998251 7.22039321,18.9998251 L7.92385031,18.9998251 C8.11289305,19.595991 8.5842881,20.0673499 9.18049983,20.2563781 L9.18049983,22.6328625 C9.18049983,23.8591225 10.1781244,24.8566704 11.4044786,24.8566704 L16.8836887,24.8566704 C17.0727315,25.4525334 17.5441265,25.9238922 18.1400353,26.1129204 L18.1400353,26.8566132 C18.1400353,27.8499201 18.9483142,28.6581368 19.9416975,28.6581368 L20.7296785,28.6581368 C20.8969087,29.2409739 21.3325552,29.711121 21.8936244,29.926504 C21.7263943,30.2597268 21.3816336,30.4887418 20.9844621,30.4887418 L14.7714996,30.4887418 C14.6209319,29.8183581 14.1201504,29.279143 13.4724366,29.0734536 L13.4724366,28.3697476 C13.4724366,27.3543268 12.6462835,26.5282372 11.6307846,26.5282372 L6.54723135,26.5282372 C5.53203544,26.5282372 4.70588235,27.3543268 4.70588235,28.3697476 L4.70588235,33.4529102 C4.70588235,34.468331 5.53203544,35.2941176 6.54723135,35.2941176 L11.6307846,35.2941176 C12.6462835,35.2941176 13.4724366,34.468331 13.4724366,33.4529102 L13.4724366,32.7492042 C14.0141168,32.57714 14.4530959,32.1721228 14.6703133,31.6519923 L20.9844621,31.6519923 C22.0108673,31.6519923 22.8739807,30.9388955 23.104225,29.9822431 C23.7452738,29.8019998 24.2521144,29.2976217 24.4360069,28.6581368 L25.1049274,28.6581368 C26.0986136,28.6581368 26.9065896,27.8499201 26.9065896,26.8566132 L26.9065896,25.3265146 C26.9065896,25.0051061 26.6463529,24.7448893 26.3249196,24.7448893 C26.0037893,24.7448893 25.7432496,25.0051061 25.7432496,25.3265146 L25.7432496,26.8566132 C25.7432496,27.2086176 25.456959,27.4948863 25.1049274,27.4948863 L24.4041969,27.4948863 C23.7995024,25.7597042 21.3583062,25.7733361 20.7611857,27.4948863 L19.9416975,27.4948863 C19.589666,27.4948863 19.3033753,27.2086176 19.3033753,26.8566132 L19.3033753,26.1129204 C19.427586,26.0735396 19.5448289,26.0229503 19.6593451,25.9590321 C19.6675249,25.9508529 20.649396,25.4549568 20.649396,24.2750451 C20.649396,23.4392618 20.1077157,22.6937514 19.3033753,22.4371698 L19.3033753,21.6937801 C19.3033753,21.3417756 19.589666,21.0555069 19.9416975,21.0555069 L25.1049274,21.0555069 C25.456959,21.0555069 25.7432496,21.3417756 25.7432496,21.6937801 L25.7432496,23.2238787 C25.7432496,23.5449843 26.0037893,23.8055039 26.3249196,23.8055039 C26.6463529,23.8055039 26.9065896,23.5449843 26.9065896,23.2238787 L26.9065896,21.6937801 C26.9065896,20.7004732 26.0983107,19.8922564 25.1049274,19.8922564 L19.9416975,19.8922564 C18.9483142,19.8922564 18.1400353,20.7004732 18.1400353,21.6937801 L18.1400353,22.4371698 C17.5441265,22.6261981 17.0727315,23.0975569 16.8836887,23.6934199 L11.4047816,23.6934199 C10.8197792,23.6934199 10.3438398,23.2175171 10.3438398,22.6328625 L10.3438398,20.2563781 C10.9397486,20.0673499 11.4111436,19.595991 11.6001864,18.9998251 L12.3039465,18.9998251 C13.3191423,18.9998251 14.1452955,18.1740384 14.1452955,17.1586176 L14.1452955,16.4549117 C14.7421132,16.2655805 15.2138111,15.7936158 15.402248,15.196844 L24.487509,15.162613 C24.6768547,15.7575672 25.1479468,16.2283201 25.7432496,16.4170454 L25.7432496,17.1207514 C25.7432496,18.1361722 26.5694028,18.9622618 27.5849016,18.9622618 L32.6684549,18.9622618 C33.6836508,18.9622618 34.5098039,18.1361722 34.5098039,17.1207514 L34.5098039,12.0375889 C34.5098039,11.0221681 33.6836508,10.1960784 32.6684549,10.1960784 Z M12.8907667,31.6756209 C12.4690559,31.6756209 12.1264159,31.3327043 12.1264159,30.9113289 C12.1264159,30.4899535 12.4693589,30.1470369 12.8907667,30.1470369 C13.3121745,30.1470369 13.6551174,30.4899535 13.6551174,30.9113289 C13.6551174,31.3327043 13.3121745,31.6756209 12.8907667,31.6756209 Z M12.3090967,33.4529102 C12.3090967,33.8267256 12.0049317,34.1308671 11.6307846,34.1308671 L6.54723135,34.1308671 C6.17338724,34.1308671 5.86922232,33.8267256 5.86922232,33.4529102 L5.86922232,28.3697476 C5.86922232,27.9956293 6.17338724,27.6914878 6.54723135,27.6914878 L11.6307846,27.6914878 C12.0049317,27.6914878 12.3090967,27.9956293 12.3090967,28.3697476 L12.3090967,29.0734536 C10.5053138,29.6481115 10.5262176,32.1809078 12.3090967,32.7492042 L12.3090967,33.4529102 Z M23.3468905,28.1298272 C23.3450728,28.549688 23.0030387,28.890484 22.5825398,28.890484 C22.1623438,28.890484 21.8203098,28.549688 21.818492,28.1298272 C21.9142252,27.0801753 23.2550957,27.1244031 23.3468905,28.1298272 L23.3468905,28.1298272 Z M18.8377363,23.5195382 C19.2043096,23.5758831 19.486056,23.8933535 19.486056,24.2750451 C19.486056,24.6973293 19.1425072,25.0393371 18.7217053,25.0393371 C18.2999946,25.0393371 17.9573546,24.6964205 17.9573546,24.2750451 C17.9573546,23.8088361 18.3739151,23.4486526 18.8377363,23.5195382 L18.8377363,23.5195382 Z M13.5636255,15.3813284 C13.1422177,15.3813284 12.7992749,15.0384117 12.7992749,14.6170364 C12.7992749,14.195661 13.1422177,13.8527444 13.5636255,13.8527444 C13.9850333,13.8527444 14.3279762,14.195661 14.3279762,14.6170364 C14.3279762,15.0384117 13.9853362,15.3813284 13.5636255,15.3813284 Z M9.76216981,19.1827948 C9.29865159,19.1827948 8.93510785,18.7692956 9.00660478,18.3021777 C9.06265109,17.9356327 9.38014595,17.6542108 9.76216981,17.6542108 C10.1832747,17.6542108 10.5265205,17.9965215 10.5265205,18.4181999 C10.5265205,18.8398782 10.1835776,19.1827948 9.76216981,19.1827948 Z M12.9819555,17.1586176 C12.9819555,17.532433 12.6777906,17.8365746 12.3036435,17.8365746 L11.6001864,17.8365746 C11.2978391,16.8923423 10.3371749,16.3334368 9.37560164,16.5297353 C9.36742196,16.5339763 8.2858793,16.7057375 7.92415324,17.8365746 L7.22039321,17.8365746 C6.8462461,17.8365746 6.54208117,17.532433 6.54208117,17.1586176 L6.54208117,12.0754551 C6.54208117,11.7016397 6.8462461,11.3971953 7.22039321,11.3971953 L12.3039465,11.3971953 C12.6777906,11.3971953 12.9819555,11.7016397 12.9819555,12.0754551 L12.9819555,12.7791611 C12.1661028,13.0390748 11.5944303,13.8179075 11.6383585,14.7142768 C11.6416909,14.7221531 11.6498707,16.030204 12.9819555,16.4549117 L12.9819555,17.1586176 Z M26.3249196,13.8148782 C26.7454185,13.8148782 27.0892703,14.156886 27.0892703,14.5791702 C27.0892703,15.0020601 26.7448127,15.3434621 26.3249196,15.3434621 C25.9035118,15.3434621 25.5605689,15.0005455 25.5605689,14.5791702 C25.5605689,14.1577948 25.9035118,13.8148782 26.3249196,13.8148782 L26.3249196,13.8148782 Z M33.346464,17.1207514 C33.346464,17.4945668 33.042299,17.7990113 32.6684549,17.7990113 L27.5849016,17.7990113 C27.2107545,17.7990113 26.9065896,17.4945668 26.9065896,17.1207514 L26.9065896,16.4170454 C27.7378929,16.1522848 28.2950237,15.3622438 28.2501867,14.480415 L28.2501867,14.4801121 C28.2098939,13.6803774 27.673061,12.9854563 26.9065896,12.7412949 L26.9065896,12.0375889 C26.9065896,11.6637735 27.2107545,11.3596319 27.5849016,11.3596319 L32.6684549,11.3596319 C33.042299,11.3596319 33.346464,11.6637735 33.346464,12.0375889 L33.346464,17.1207514 Z" id="Shape" fill-rule="nonzero"></path>
                </g>
            </g>
        </g>
    </g>
</svg>