<?xml version="1.0" encoding="UTF-8"?>
<svg width="40px" height="38px" viewBox="0 0 40 38" version="1.1" xmlns="http://www.w3.org/2000/svg" xmlns:xlink="http://www.w3.org/1999/xlink">
    <title>Group 4</title>
    <g id="Page-2" stroke="none" stroke-width="1" fill="none" fill-rule="evenodd">
        <g id="work-1" transform="translate(-129.000000, -1099.000000)">
            <g id="Group-8" transform="translate(129.000000, 1099.000000)">
                <g id="Group-4" transform="translate(0.000000, 0.000000)">
                    <g id="ux-copy" fill="#000000">
                        <path d="M7.21160891,4.12712488 C7.21160891,3.04145775 6.33026125,2.15849333 5.24658203,2.15849333 C4.16290281,2.15849333 3.28125,3.04145775 3.28125,4.12712488 C3.28125,5.21279194 4.16290281,6.09575635 5.24658203,6.09575635 C6.32995609,6.09575635 7.21160891,5.21279194 7.21160891,4.12712488 Z M4.453125,4.12712488 C4.453125,3.68900571 4.80926516,3.33251804 5.24658203,3.33251804 C5.68389891,3.33251804 6.03973391,3.68900571 6.03973391,4.12712488 C6.03973391,4.56524398 5.68389891,4.92173165 5.24658203,4.92173165 C4.80926516,4.92173165 4.453125,4.56524398 4.453125,4.12712488 Z" id="Shape" fill-rule="nonzero"></path>
                        <path d="M9.91516109,6.09575635 C10.9988403,6.09575635 11.8804931,5.21279194 11.8804931,4.12712488 C11.8804931,3.04145775 10.9988403,2.15849333 9.91516109,2.15849333 C8.83148195,2.15849333 7.9501343,3.04145775 7.9501343,4.12712488 C7.9501343,5.21279194 8.83148195,6.09575635 9.91516109,6.09575635 Z M9.91516109,3.33251804 C10.3527832,3.33251804 10.7086181,3.68900571 10.7086181,4.12712488 C10.7086181,4.56524398 10.352478,4.92173165 9.91516109,4.92173165 C9.47784422,4.92173165 9.1220093,4.56524398 9.1220093,4.12712488 C9.1220093,3.68900571 9.47784422,3.33251804 9.91516109,3.33251804 Z" id="Shape" fill-rule="nonzero"></path>
                        <path d="M14.5840454,6.09575635 C15.6674195,6.09575635 16.5490723,5.21279194 16.5490723,4.12712488 C16.5490723,3.04145775 15.6674195,2.15849333 14.5840454,2.15849333 C13.5003662,2.15849333 12.6187134,3.04145775 12.6187134,4.12712488 C12.6187134,5.21279194 13.5003662,6.09575635 14.5840454,6.09575635 Z M14.5840454,3.33251804 C15.0213623,3.33251804 15.3771973,3.68900571 15.3771973,4.12712488 C15.3771973,4.56524398 15.0213623,4.92173165 14.5840454,4.92173165 C14.1464234,4.92173165 13.7905884,4.56524398 13.7905884,4.12712488 C13.7905884,3.68900571 14.1464234,3.33251804 14.5840454,3.33251804 Z" id="Shape" fill-rule="nonzero"></path>
                        <path d="M21.0678101,4.71413723 L35.3384399,4.71413723 C35.6622314,4.71413723 35.9243774,4.45151033 35.9243774,4.12712488 C35.9243774,3.80273943 35.6622314,3.54011253 35.3384399,3.54011253 L21.0678101,3.54011253 C20.7440186,3.54011253 20.4818726,3.80273943 20.4818726,4.12712488 C20.4818726,4.45151033 20.7440186,4.71413723 21.0678101,4.71413723 Z" id="Path"></path>
                        <path d="M37.5534058,0.0391341568 L2.44659422,0.0391341568 C1.09771727,0.0391341568 0,1.13855937 0,2.49021644 L0,35.1476703 C0,36.4990216 1.09771727,37.5987526 2.44659422,37.5987526 L37.5534058,37.5987526 C38.9022827,37.5987526 40,36.4990216 40,35.1476703 L40,2.49021644 C40,1.13855937 38.9022827,0.0391341568 37.5534058,0.0391341568 Z M37.5534058,36.4247279 L2.44659422,36.4247279 C1.74377438,36.4247279 1.171875,35.8517794 1.171875,35.1476703 L1.171875,8.21511561 L4.43817141,8.21511561 C4.76196289,8.21511561 5.02410891,7.95248871 5.02410891,7.62810326 C5.02410891,7.30402344 4.76196289,7.0410909 4.43817141,7.0410909 L1.171875,7.0410909 L1.171875,2.49021644 C1.171875,1.78610734 1.74377438,1.21315886 2.44659422,1.21315886 L37.5534058,1.21315886 C38.2562256,1.21315886 38.828125,1.78610734 38.828125,2.49021644 L38.828125,7.0410909 L6.62567141,7.0410909 C6.30218508,7.0410909 6.03973391,7.30402344 6.03973391,7.62810326 C6.03973391,7.95248871 6.30218508,8.21511561 6.62567141,8.21511561 L38.828125,8.21511561 L38.828125,35.1476703 C38.828125,35.8517794 38.2562256,36.4247279 37.5534058,36.4247279 Z" id="Shape" fill-rule="nonzero"></path>
                    </g>
                    <g id="Group-3" transform="translate(3.921569, 10.196078)">
                        <polygon id="Triangle" stroke="#000000" stroke-width="1.5" stroke-linecap="round" stroke-linejoin="round" transform="translate(5.989305, 17.928303) scale(1, -1) translate(-5.989305, -17.928303) " points="5.98930481 16.0863537 8.98395722 19.7702515 2.99465241 19.7702515"></polygon>
                        <rect id="Rectangle" stroke="#000000" stroke-width="1.5" x="0.75" y="16.0995742" width="10.4786096" height="8.12566824" rx="3.762"></rect>
                        <path d="M13.4520392,12.365617 C13.4542256,14.1619201 14.9333588,15.617575 16.7586346,15.6197267 L28.6623779,15.6197267 C30.4876537,15.617575 31.9667869,14.1619201 31.9689733,12.365617 L31.9689733,3.25410972 C31.9667869,1.45780656 30.4876537,0.00215169306 28.6623779,-7.10542736e-14 L16.7586346,-7.10542736e-14 C14.9333588,0.00215169306 13.4542256,1.45780656 13.4520392,3.25410972 L13.4520392,6.88960111 L11.1942959,9.11150723 L13.4520392,11.3334133 L13.4520392,12.365617 Z M13.0645062,9.11150723 L14.7746774,7.42848168 L14.7746774,3.25410972 C14.7746774,2.17579262 15.6629253,1.30164389 16.7586346,1.30164389 L28.6623779,1.30164389 C29.7580872,1.30164389 30.6463351,2.17579262 30.6463351,3.25410972 L30.6463351,12.365617 C30.6463351,13.4439341 29.7580872,14.3180828 28.6623779,14.3180828 L16.7586346,14.3180828 C15.6629253,14.3180828 14.7746774,13.4439341 14.7746774,12.365617 L14.7746774,10.7945328 L13.0645062,9.11150723 Z" id="Shape" fill="#000000" fill-rule="nonzero"></path>
                        <path d="M5.37789661,15.0057437 C7.93334306,15.0028745 10.0042146,12.9648739 10.0071301,10.4499901 L10.0071301,5.89423648 L5.37789661,5.89423648 C2.82124154,5.89423648 0.748663102,7.93391685 0.748663102,10.4499901 C0.748663102,12.9660633 2.82124154,15.0057437 5.37789661,15.0057437 Z M5.37789661,13.7040998 C4.04101757,13.7021523 2.83653064,12.9090828 2.32458645,11.6937108 C3.45239353,10.4912648 5.03776337,9.80488772 6.70053476,9.79916815 L8.68449198,9.79916815 L8.68449198,10.4499901 C8.68230558,12.2462933 7.2031724,13.7019481 5.37789661,13.7040998 Z M5.37789661,7.19588037 L8.68449198,7.19588037 L8.68449198,8.49752426 L6.70053476,8.49752426 C5.02594967,8.5024197 3.40386667,9.07313038 2.10568984,10.114166 C2.27664333,8.46054695 3.68894029,7.20100373 5.37789661,7.19588037 L5.37789661,7.19588037 Z" id="Shape" fill="#000000" fill-rule="nonzero"></path>
                        <path d="M20.4385027,11.3218459 L26.3903743,11.3218459 C28.2156501,11.3196942 29.6947833,9.86403935 29.6969697,8.06773619 L29.6969697,6.7660923 C29.6969697,5.68777519 28.8087218,4.81362646 27.7130125,4.81362646 L25.7290553,4.81362646 L25.7290553,4.16280452 C25.7290553,3.08448741 24.8408074,2.21033868 23.745098,2.21033868 C22.6493887,2.21033868 21.7611408,3.08448741 21.7611408,4.16280452 L21.7611408,4.81362646 L20.4385027,4.81362646 L20.4385027,3.51198257 L16.4705882,3.51198257 L16.4705882,12.6234898 L20.4385027,12.6234898 L20.4385027,11.3218459 Z M23.083779,6.11527035 L23.083779,4.16280452 C23.083779,3.80336548 23.3798616,3.51198257 23.745098,3.51198257 C24.1103345,3.51198257 24.4064171,3.80336548 24.4064171,4.16280452 L24.4064171,6.11527035 L27.7130125,6.11527035 C28.0782489,6.11527035 28.3743316,6.40665326 28.3743316,6.7660923 L28.3743316,8.06773619 C28.3743316,9.14605329 27.4860836,10.020202 26.3903743,10.020202 L20.4385027,10.020202 L20.4385027,6.11527035 L23.083779,6.11527035 Z M17.7932264,11.3218459 L17.7932264,4.81362646 L19.1158645,4.81362646 L19.1158645,11.3218459 L17.7932264,11.3218459 Z" id="Shape" fill="#000000" fill-rule="nonzero"></path>
                    </g>
                </g>
            </g>
        </g>
    </g>
</svg>