<?xml version="1.0" encoding="UTF-8"?>
<svg width="51px" height="48px" viewBox="0 0 51 48" version="1.1" xmlns="http://www.w3.org/2000/svg" xmlns:xlink="http://www.w3.org/1999/xlink">
    <title>ux</title>
    <g id="new" stroke="none" stroke-width="1" fill="none" fill-rule="evenodd">
        <g id="work-1" transform="translate(-369.000000, -1118.000000)" fill="#000000">
            <g id="Group-7" transform="translate(369.000000, 1118.000000)">
                <g id="ux">
                    <path d="M9.19480136,5.26208422 C9.19480136,3.87785863 8.07108309,2.752079 6.68939209,2.752079 C5.30770109,2.752079 4.18359375,3.87785863 4.18359375,5.26208422 C4.18359375,6.64630972 5.30770109,7.77208935 6.68939209,7.77208935 C8.07069402,7.77208935 9.19480136,6.64630972 9.19480136,5.26208422 Z M5.67773437,5.26208422 C5.67773437,4.70348228 6.13181307,4.2489605 6.68939209,4.2489605 C7.24697111,4.2489605 7.70066073,4.70348228 7.70066073,5.26208422 C7.70066073,5.82068607 7.24697111,6.27520785 6.68939209,6.27520785 C6.13181307,6.27520785 5.67773437,5.82068607 5.67773437,5.26208422 Z" id="Shape" fill-rule="nonzero"></path>
                    <path d="M12.6418304,7.77208935 C14.0235214,7.77208935 15.1476287,6.64630972 15.1476287,5.26208422 C15.1476287,3.87785863 14.0235214,2.752079 12.6418304,2.752079 C11.2601395,2.752079 10.1364212,3.87785863 10.1364212,5.26208422 C10.1364212,6.64630972 11.2601395,7.77208935 12.6418304,7.77208935 Z M12.6418304,4.2489605 C13.1997986,4.2489605 13.6534881,4.70348228 13.6534881,5.26208422 C13.6534881,5.82068607 13.1994095,6.27520785 12.6418304,6.27520785 C12.0842514,6.27520785 11.6305619,5.82068607 11.6305619,5.26208422 C11.6305619,4.70348228 12.0842514,4.2489605 12.6418304,4.2489605 Z" id="Shape" fill-rule="nonzero"></path>
                    <path d="M18.5946579,7.77208935 C19.9759598,7.77208935 21.1000671,6.64630972 21.1000671,5.26208422 C21.1000671,3.87785863 19.9759598,2.752079 18.5946579,2.752079 C17.212967,2.752079 16.0888595,3.87785863 16.0888595,5.26208422 C16.0888595,6.64630972 17.212967,7.77208935 18.5946579,7.77208935 Z M18.5946579,4.2489605 C19.152237,4.2489605 19.6059265,4.70348228 19.6059265,5.26208422 C19.6059265,5.82068607 19.152237,6.27520785 18.5946579,6.27520785 C18.0366898,6.27520785 17.5830002,5.82068607 17.5830002,5.26208422 C17.5830002,4.70348228 18.0366898,4.2489605 18.5946579,4.2489605 Z" id="Shape" fill-rule="nonzero"></path>
                    <path d="M26.8614578,6.01052497 L45.0565109,6.01052497 C45.469345,6.01052497 45.8035812,5.67567568 45.8035812,5.26208422 C45.8035812,4.84849277 45.469345,4.51364348 45.0565109,4.51364348 L26.8614578,4.51364348 C26.4486237,4.51364348 26.1143875,4.84849277 26.1143875,5.26208422 C26.1143875,5.67567568 26.4486237,6.01052497 26.8614578,6.01052497 Z" id="Path"></path>
                    <path d="M47.8805924,0.0498960499 L3.11940763,0.0498960499 C1.39958951,0.0498960499 0,1.4516632 0,3.17502596 L0,44.8132796 C0,46.5362526 1.39958951,47.9384095 3.11940763,47.9384095 L47.8805924,47.9384095 C49.6004105,47.9384095 51,46.5362526 51,44.8132796 L51,3.17502596 C51,1.4516632 49.6004105,0.0498960499 47.8805924,0.0498960499 Z M47.8805924,46.441528 L3.11940763,46.441528 C2.22331233,46.441528 1.49414062,45.7110187 1.49414062,44.8132796 L1.49414062,10.4742724 L5.65866854,10.4742724 C6.07150269,10.4742724 6.40573886,10.1394231 6.40573886,9.72583165 C6.40573886,9.31262989 6.07150269,8.9773909 5.65866854,8.9773909 L1.49414062,8.9773909 L1.49414062,3.17502596 C1.49414062,2.27728685 2.22331233,1.54677755 3.11940763,1.54677755 L47.8805924,1.54677755 C48.7766877,1.54677755 49.5058594,2.27728685 49.5058594,3.17502596 L49.5058594,8.9773909 L8.44773104,8.9773909 C8.03528597,8.9773909 7.70066073,9.31262989 7.70066073,9.72583165 C7.70066073,10.1394231 8.03528597,10.4742724 8.44773104,10.4742724 L49.5058594,10.4742724 L49.5058594,44.8132796 C49.5058594,45.7110187 48.7766877,46.441528 47.8805924,46.441528 Z" id="Shape" fill-rule="nonzero"></path>
                    <path d="M41.65228,13 L35.1707496,13 C33.8759886,13 32.8226433,14.0532643 32.8226433,15.3479258 L32.8226433,16.245151 C32.0620871,16.4865482 31.4606722,17.0883031 31.2200289,17.8491871 L19.6363211,17.8928317 C19.3949053,17.1342651 18.794263,16.5344414 18.0352518,16.2934304 L18.0352518,15.3965915 C18.0352518,14.10193 16.9819065,13.0486657 15.6871454,13.0486657 L9.20600135,13.0486657 C7.91124032,13.0486657 6.85789503,14.10193 6.85789503,15.3965915 L6.85789503,21.8772374 C6.85789503,23.1718989 7.91124032,24.2247771 9.20600135,24.2247771 L10.1029091,24.2247771 C10.3439386,24.9848886 10.9449673,25.5858711 11.7051373,25.826882 L11.7051373,28.8568997 C11.7051373,30.4203812 12.9771086,31.6922548 14.5407103,31.6922548 L21.5267031,31.6922548 C21.7677326,32.4519801 22.3687613,33.0529626 23.128545,33.2939735 L23.128545,34.2421818 C23.128545,35.5086481 24.1591006,36.5391244 25.4256643,36.5391244 L26.4303401,36.5391244 C26.6435585,37.2822417 27.1990079,37.8816792 27.9143711,38.1562926 C27.7011527,38.5811517 27.2615829,38.8731457 26.7551892,38.8731457 L18.833662,38.8731457 C18.6416882,38.0184065 18.0031918,37.3309073 17.1773567,37.0686533 L17.1773567,36.1714282 C17.1773567,34.8767667 16.1240114,33.8235025 14.8292504,33.8235025 L8.34771997,33.8235025 C7.05334519,33.8235025 6,34.8767667 6,36.1714282 L6,42.6524605 C6,43.947122 7.05334519,45 8.34771997,45 L14.8292504,45 C16.1240114,45 17.1773567,43.947122 17.1773567,42.6524605 L17.1773567,41.7552353 C17.8679989,41.5358535 18.4276972,41.0194566 18.7046495,40.3562902 L26.7551892,40.3562902 C28.0638557,40.3562902 29.1643253,39.4470918 29.4578869,38.2273599 C30.2752241,37.9975498 30.9214458,37.3544676 31.1559088,36.5391244 L32.0087824,36.5391244 C33.2757324,36.5391244 34.3059017,35.5086481 34.3059017,34.2421818 L34.3059017,32.2913061 C34.3059017,31.8815102 33.9740999,31.5497339 33.5642725,31.5497339 C33.1548314,31.5497339 32.8226433,31.8815102 32.8226433,32.2913061 L32.8226433,34.2421818 C32.8226433,34.6909874 32.4576227,35.05598 32.0087824,35.05598 L31.115351,35.05598 C30.3443656,32.8436228 27.2318404,32.8610035 26.4705117,35.05598 L25.4256643,35.05598 C24.9768241,35.05598 24.6118035,34.6909874 24.6118035,34.2421818 L24.6118035,33.2939735 C24.7701722,33.243763 24.9196568,33.1792616 25.065665,33.0977659 C25.0760942,33.0873375 26.3279799,32.45507 26.3279799,30.9506825 C26.3279799,29.8850588 25.6373376,28.9345331 24.6118035,28.6073915 L24.6118035,27.6595696 C24.6118035,27.2107639 24.9768241,26.8457713 25.4256643,26.8457713 L32.0087824,26.8457713 C32.4576227,26.8457713 32.8226433,27.2107639 32.8226433,27.6595696 L32.8226433,29.6104453 C32.8226433,30.019855 33.1548314,30.3520175 33.5642725,30.3520175 C33.9740999,30.3520175 34.3059017,30.019855 34.3059017,29.6104453 L34.3059017,27.6595696 C34.3059017,26.3931033 33.2753461,25.3626269 32.0087824,25.3626269 L25.4256643,25.3626269 C24.1591006,25.3626269 23.128545,26.3931033 23.128545,27.6595696 L23.128545,28.6073915 C22.3687613,28.8484025 21.7677326,29.4493851 21.5267031,30.2091103 L14.5410966,30.2091103 C13.7952184,30.2091103 13.1883957,29.6023343 13.1883957,28.8568997 L13.1883957,25.826882 C13.9481795,25.5858711 14.5492081,24.9848886 14.7902376,24.2247771 L15.6875318,24.2247771 C16.9819065,24.2247771 18.0352518,23.1718989 18.0352518,21.8772374 L18.0352518,20.9800124 C18.7961943,20.7386151 19.3976092,20.1368602 19.6378662,19.3759761 L31.221574,19.3323316 C31.4629897,20.0908981 32.0636321,20.6911081 32.8226433,20.9317329 L32.8226433,21.828958 C32.8226433,23.1236195 33.8759886,24.1768838 35.1707496,24.1768838 L41.65228,24.1768838 C42.9466548,24.1768838 44,23.1236195 44,21.828958 L44,15.3479258 C44,14.0532643 42.9466548,13 41.65228,13 Z M16.4357275,40.3864166 C15.8980463,40.3864166 15.4611803,39.949198 15.4611803,39.4119443 C15.4611803,38.8746907 15.8984325,38.4374721 16.4357275,38.4374721 C16.9730224,38.4374721 17.4102747,38.8746907 17.4102747,39.4119443 C17.4102747,39.949198 16.9730224,40.3864166 16.4357275,40.3864166 Z M15.6940983,42.6524605 C15.6940983,43.1290751 15.306288,43.5168556 14.8292504,43.5168556 L8.34771997,43.5168556 C7.87106874,43.5168556 7.48325845,43.1290751 7.48325845,42.6524605 L7.48325845,36.1714282 C7.48325845,35.6944274 7.87106874,35.3066469 8.34771997,35.3066469 L14.8292504,35.3066469 C15.306288,35.3066469 15.6940983,35.6944274 15.6940983,36.1714282 L15.6940983,37.0686533 C13.3942751,37.8013422 13.4209275,41.0306575 15.6940983,41.7552353 L15.6940983,42.6524605 Z M29.7672854,35.8655296 C29.7649678,36.4008521 29.3288744,36.8353671 28.7927382,36.8353671 C28.2569884,36.8353671 27.8208949,36.4008521 27.8185773,35.8655296 C27.9406371,34.5272236 29.650247,34.583614 29.7672854,35.8655296 L29.7672854,35.8655296 Z M24.0181138,29.9874112 C24.4854947,30.0592509 24.8447214,30.4640258 24.8447214,30.9506825 C24.8447214,31.4890949 24.4066966,31.9251548 23.8701742,31.9251548 C23.3324931,31.9251548 22.8956271,31.4879362 22.8956271,30.9506825 C22.8956271,30.356266 23.4267418,29.897032 24.0181138,29.9874112 L24.0181138,29.9874112 Z M17.2936225,19.6111937 C16.7563276,19.6111937 16.3190754,19.1739749 16.3190754,18.6367214 C16.3190754,18.0994677 16.7563276,17.6622491 17.2936225,17.6622491 C17.8309175,17.6622491 18.2681697,18.0994677 18.2681697,18.6367214 C18.2681697,19.1739749 17.8313037,19.6111937 17.2936225,19.6111937 Z M12.4467665,24.4580633 C11.8557808,24.4580633 11.3922625,23.9308518 11.4834211,23.3352766 C11.5548801,22.8679317 11.9596861,22.5091188 12.4467665,22.5091188 C12.9836752,22.5091188 13.4213137,22.945565 13.4213137,23.4832048 C13.4213137,24.0208447 12.9840615,24.4580633 12.4467665,24.4580633 Z M16.5519933,21.8772374 C16.5519933,22.3538521 16.164183,22.7416326 15.6871454,22.7416326 L14.7902376,22.7416326 C14.4047449,21.5377364 13.179898,20.8251319 11.9538921,21.0754125 C11.943463,21.0808198 10.5644961,21.2998153 10.1032954,22.7416326 L9.20600135,22.7416326 C8.72896377,22.7416326 8.34115349,22.3538521 8.34115349,21.8772374 L8.34115349,15.3962052 C8.34115349,14.9195906 8.72896377,14.531424 9.20600135,14.531424 L15.6875318,14.531424 C16.164183,14.531424 16.5519933,14.9195906 16.5519933,15.3962052 L16.5519933,16.2934304 C15.5117811,16.6248204 14.7828986,17.617832 14.8389071,18.760703 C14.843156,18.7707451 14.8535851,20.4385101 16.5519933,20.9800124 L16.5519933,21.8772374 Z M33.5642725,17.6139697 C34.1004086,17.6139697 34.5388197,18.0500296 34.5388197,18.588442 C34.5388197,19.1276267 34.0996362,19.5629141 33.5642725,19.5629141 C33.0269776,19.5629141 32.5897253,19.1256955 32.5897253,18.588442 C32.5897253,18.0511883 33.0269776,17.6139697 33.5642725,17.6139697 L33.5642725,17.6139697 Z M42.5167415,21.828958 C42.5167415,22.3055727 42.1289313,22.6937394 41.65228,22.6937394 L35.1707496,22.6937394 C34.693712,22.6937394 34.3059017,22.3055727 34.3059017,21.828958 L34.3059017,20.9317329 C35.3658135,20.5941631 36.0761553,19.5868608 36.018988,18.4625291 L36.018988,18.4621429 C35.9676147,17.4424811 35.2831528,16.5564568 34.3059017,16.245151 L34.3059017,15.3479258 C34.3059017,14.8713112 34.693712,14.4835306 35.1707496,14.4835306 L41.65228,14.4835306 C42.1289313,14.4835306 42.5167415,14.8713112 42.5167415,15.3479258 L42.5167415,21.828958 Z" id="Shape" fill-rule="nonzero"></path>
                </g>
            </g>
        </g>
    </g>
</svg>