<?xml version="1.0" encoding="UTF-8"?>
<svg width="51px" height="48px" viewBox="0 0 51 48" version="1.1" xmlns="http://www.w3.org/2000/svg" xmlns:xlink="http://www.w3.org/1999/xlink">
    <title>Group 5</title>
    <g id="new" stroke="none" stroke-width="1" fill="none" fill-rule="evenodd">
        <g id="work-1" transform="translate(-628.000000, -1118.000000)" fill="#000000">
            <g id="Group-9" transform="translate(628.000000, 1118.000000)">
                <g id="Group-5">
                    <g id="ux-copy-2">
                        <path d="M9.19480136,5.26208422 C9.19480136,3.87785863 8.07108309,2.752079 6.68939209,2.752079 C5.30770109,2.752079 4.18359375,3.87785863 4.18359375,5.26208422 C4.18359375,6.64630972 5.30770109,7.77208935 6.68939209,7.77208935 C8.07069402,7.77208935 9.19480136,6.64630972 9.19480136,5.26208422 Z M5.67773437,5.26208422 C5.67773437,4.70348228 6.13181307,4.2489605 6.68939209,4.2489605 C7.24697111,4.2489605 7.70066073,4.70348228 7.70066073,5.26208422 C7.70066073,5.82068607 7.24697111,6.27520785 6.68939209,6.27520785 C6.13181307,6.27520785 5.67773437,5.82068607 5.67773437,5.26208422 Z" id="Shape" fill-rule="nonzero"></path>
                        <path d="M12.6418304,7.77208935 C14.0235214,7.77208935 15.1476287,6.64630972 15.1476287,5.26208422 C15.1476287,3.87785863 14.0235214,2.752079 12.6418304,2.752079 C11.2601395,2.752079 10.1364212,3.87785863 10.1364212,5.26208422 C10.1364212,6.64630972 11.2601395,7.77208935 12.6418304,7.77208935 Z M12.6418304,4.2489605 C13.1997986,4.2489605 13.6534881,4.70348228 13.6534881,5.26208422 C13.6534881,5.82068607 13.1994095,6.27520785 12.6418304,6.27520785 C12.0842514,6.27520785 11.6305619,5.82068607 11.6305619,5.26208422 C11.6305619,4.70348228 12.0842514,4.2489605 12.6418304,4.2489605 Z" id="Shape" fill-rule="nonzero"></path>
                        <path d="M18.5946579,7.77208935 C19.9759598,7.77208935 21.1000671,6.64630972 21.1000671,5.26208422 C21.1000671,3.87785863 19.9759598,2.752079 18.5946579,2.752079 C17.212967,2.752079 16.0888595,3.87785863 16.0888595,5.26208422 C16.0888595,6.64630972 17.212967,7.77208935 18.5946579,7.77208935 Z M18.5946579,4.2489605 C19.152237,4.2489605 19.6059265,4.70348228 19.6059265,5.26208422 C19.6059265,5.82068607 19.152237,6.27520785 18.5946579,6.27520785 C18.0366898,6.27520785 17.5830002,5.82068607 17.5830002,5.26208422 C17.5830002,4.70348228 18.0366898,4.2489605 18.5946579,4.2489605 Z" id="Shape" fill-rule="nonzero"></path>
                        <path d="M26.8614578,6.01052497 L45.0565109,6.01052497 C45.469345,6.01052497 45.8035812,5.67567568 45.8035812,5.26208422 C45.8035812,4.84849277 45.469345,4.51364348 45.0565109,4.51364348 L26.8614578,4.51364348 C26.4486237,4.51364348 26.1143875,4.84849277 26.1143875,5.26208422 C26.1143875,5.67567568 26.4486237,6.01052497 26.8614578,6.01052497 Z" id="Path"></path>
                        <path d="M47.8805924,0.0498960499 L3.11940763,0.0498960499 C1.39958951,0.0498960499 0,1.4516632 0,3.17502596 L0,44.8132796 C0,46.5362526 1.39958951,47.9384095 3.11940763,47.9384095 L47.8805924,47.9384095 C49.6004105,47.9384095 51,46.5362526 51,44.8132796 L51,3.17502596 C51,1.4516632 49.6004105,0.0498960499 47.8805924,0.0498960499 Z M47.8805924,46.441528 L3.11940763,46.441528 C2.22331233,46.441528 1.49414062,45.7110187 1.49414062,44.8132796 L1.49414062,10.4742724 L5.65866854,10.4742724 C6.07150269,10.4742724 6.40573886,10.1394231 6.40573886,9.72583165 C6.40573886,9.31262989 6.07150269,8.9773909 5.65866854,8.9773909 L1.49414062,8.9773909 L1.49414062,3.17502596 C1.49414062,2.27728685 2.22331233,1.54677755 3.11940763,1.54677755 L47.8805924,1.54677755 C48.7766877,1.54677755 49.5058594,2.27728685 49.5058594,3.17502596 L49.5058594,8.9773909 L8.44773104,8.9773909 C8.03528597,8.9773909 7.70066073,9.31262989 7.70066073,9.72583165 C7.70066073,10.1394231 8.03528597,10.4742724 8.44773104,10.4742724 L49.5058594,10.4742724 L49.5058594,44.8132796 C49.5058594,45.7110187 48.7766877,46.441528 47.8805924,46.441528 Z" id="Shape" fill-rule="nonzero"></path>
                    </g>
                    <g id="magic-wand" transform="translate(11.000000, 14.000000)" stroke="#000000" stroke-width="0.3">
                        <path d="M25.1649249,0 C24.1472898,-0.0027925313 23.1708334,0.403787451 22.4532174,1.12912369 L16.2763223,7.33854062 L16.9482685,8.01408315 L18.9880149,5.9635976 L19.7414791,6.7210288 L14.8508643,11.637392 L15.52281,12.3129339 L20.4134556,7.39654327 L21.6420668,8.63162303 L12,18.3244575 L12.6719462,19 L22.3140433,9.30713751 L23.0675076,10.0645687 L16.7514692,16.4138632 L17.4234155,17.0894058 L27.8766323,6.58115121 C28.9734368,5.47859647 29.3015509,3.82042512 28.7079733,2.3798511 C28.1143957,0.939277082 26.7160235,0 25.1649249,0 Z M19.6599914,5.28808312 L21.8388964,3.09770625 L25.9183891,7.19867736 L25.1649249,7.95610856 L24.0754569,6.860904 L23.4035113,7.53644594 L24.4929483,8.63162303 L23.7394841,9.38905424 L19.6599914,5.28808312 Z M27.204689,5.90560927 L26.5903656,6.52316288 L22.5108729,2.42219177 L23.1251654,1.80466562 C23.8538151,1.07170723 24.916152,0.785307527 25.9118569,1.05339017 C26.9075618,1.32147281 27.6852972,2.1032918 27.95199,3.10423525 C28.2186828,4.10517871 27.9337982,5.17311281 27.204689,5.90560927 L27.204689,5.90560927 Z" id="Shape" fill-rule="nonzero"></path>
                        <path d="M11.3398623,14.4675674 L4.20117436,21.9487216 L3.46093071,21.1729434 L10.5996081,13.6918639 L9.93947037,13 L2.4707136,20.8270262 C2.41947765,20.8807317 2.38087026,20.9461953 2.35794587,21.018238 L0.0239593818,28.356075 C-0.0319404347,28.5318584 0.0117160559,28.7256526 0.136731251,28.8566771 C0.261746446,28.9877015 0.446665847,29.0334706 0.614408367,28.974906 L7.61636784,26.5289603 C7.68510692,26.5049233 7.74757137,26.4644659 7.79882723,26.4107838 L10.132826,23.9648216 L9.47268882,23.2729584 L7.46877062,25.3730321 L6.72853163,24.597282 L8.73243408,22.4972542 L8.07229693,21.805391 L6.06836355,23.9054781 L4.8613366,22.6405255 L12,15.1594313 L11.3398623,14.4675674 Z M1.93209428,25.4509446 C2.55989075,25.7830901 3.06963419,26.3172764 3.38658682,26.9751821 L1.20485677,27.7373009 L1.93209428,25.4509446 Z M6.60459695,25.8510683 L4.28049372,26.6629296 C3.85989623,25.715909 3.1337396,24.9549245 2.23006442,24.5141578 L3.00477289,22.0785731 L3.87110724,22.9864574 L6.60459695,25.8510683 Z" id="Shape" fill-rule="nonzero"></path>
                        <polygon id="Path" transform="translate(22.183893, 5.849960) rotate(-45.000000) translate(-22.183893, -5.849960) " points="21.7016378 5.16796007 22.6661491 5.16796007 22.6661491 6.53195988 21.7016378 6.53195988"></polygon>
                        <path d="M0.483870968,9.65517417 L8.50926532,9.65517417 L12.7223746,13.8586285 C12.8607725,13.996671 13.068884,14.0379544 13.2496832,13.9632315 C13.4304823,13.8885085 13.5483711,13.7124917 13.5483871,13.5172438 L13.5483871,9.65517417 L14.516129,9.65517417 C14.7833625,9.6551715 15,9.43903463 15,9.17241546 L15,0.482758708 C15,0.21613954 14.7833625,0 14.516129,0 L0.483870968,0 C0.216637518,0 0,0.21613954 0,0.482758708 L0,9.17241546 C0,9.43903463 0.216637518,9.6551715 0.483870968,9.65517417 L0.483870968,9.65517417 Z M0.967741935,0.965517417 L14.0322581,0.965517417 L14.0322581,8.68965675 L13.0645161,8.68965675 C12.7972827,8.68965942 12.5806478,8.90579629 12.5806452,9.17241546 L12.5806452,12.351775 L9.05181895,8.83103083 C8.9610722,8.74050798 8.83800186,8.68965489 8.70967742,8.68965675 L0.967741935,8.68965675 L0.967741935,0.965517417 Z" id="Shape" fill-rule="nonzero"></path>
                        <path d="M4.39912782,3 L3.12445969,4.61849235 C3.0447697,4.71967279 3,4.85690583 3,5 C3,5.14309417 3.0447697,5.28032721 3.12445969,5.38150765 L4.39912782,7 L5,6.23698471 L4.02576797,5 L5,3.76301529 L4.39912782,3 Z" id="Path"></path>
                        <polygon id="Path" transform="translate(7.471824, 4.885900) rotate(-63.434949) translate(-7.471824, -4.885900) " points="4.77680543 4.40380217 10.1668431 4.40380217 10.1668431 5.3679984 4.77680543 5.3679984"></polygon>
                        <path d="M10.6008722,7 L11.8755403,5.38150765 C11.9552303,5.28032721 12,5.14309417 12,5 C12,4.85690583 11.9552303,4.71967279 11.8755403,4.61849235 L10.6008722,3 L10,3.76301529 L10.974232,5 L10,6.23698471 L10.6008722,7 Z" id="Path"></path>
                        <path d="M28.5250005,18 L14.7500158,18 C14.4876819,18 14.2750189,18.2238588 14.2750163,18.5 L14.2750163,20 L10.4750205,20 C10.2828954,20 10.1096886,20.1218258 10.0361685,20.3086699 C9.96264836,20.495514 10.003294,20.7105788 10.1391519,20.8535769 L14.2750163,25.2070925 L14.2750163,28.5 C14.2750189,28.7761412 14.4876819,29 14.7500158,29 L28.5250005,29 C28.7873344,29 29,28.7761412 29,28.5 L29,18.5 C29,18.2238588 28.7873344,18 28.5250005,18 Z M28.0500011,28 L15.2250152,28 L15.2250152,25 C15.2250144,24.8673836 15.1749678,24.7401989 15.0858843,24.6464231 L11.621788,21 L14.7500158,21 C15.0123496,21 15.2250126,20.7761412 15.2250152,20.5 L15.2250152,19 L28.0500011,19 L28.0500011,28 Z" id="Shape" fill-rule="nonzero"></path>
                        <path d="M18.3991278,26 L19,25.2369847 L18.025768,24 L19,22.7630153 L18.3991278,22 L17.1244597,23.6184924 C17.0447697,23.7196728 17,23.8569058 17,24 C17,24.1430942 17.0447697,24.2803272 17.1244597,24.3815076 L18.3991278,26 Z" id="Path"></path>
                        <polygon id="Path" transform="translate(21.447835, 23.696952) rotate(-63.434949) translate(-21.447835, -23.696952) " points="18.7528158 23.2148541 24.1428535 23.2148541 24.1428535 24.1790504 18.7528158 24.1790504"></polygon>
                        <path d="M24.6008722,26 L25.8755403,24.3815076 C25.9552303,24.2803272 26,24.1430942 26,24 C26,23.8569058 25.9552303,23.7196728 25.8755403,23.6184924 L24.6008722,22 L24,22.7630153 L24.974232,24 L24,25.2369847 L24.6008722,26 Z" id="Path"></path>
                    </g>
                </g>
            </g>
        </g>
    </g>
</svg>